<svg width="78" height="74" viewBox="0 0 78 74" fill="none" xmlns="http://www.w3.org/2000/svg">
<g filter="url(#filter0_d_450_128)">
<circle cx="39" cy="37" r="35" fill="#F3F0F9"/>
</g>
<mask id="mask0_450_128" style="mask-type:alpha" maskUnits="userSpaceOnUse" x="11" y="9" width="56" height="56">
<rect x="11" y="9" width="56" height="56" fill="#D9D9D9"/>
</mask>
<g mask="url(#mask0_450_128)">
<path d="M39 32.3333C36.4333 32.3333 34.2361 31.4194 32.4083 29.5917C30.5805 27.7639 29.6666 25.5667 29.6666 23C29.6666 20.4333 30.5805 18.2361 32.4083 16.4083C34.2361 14.5805 36.4333 13.6667 39 13.6667C41.5666 13.6667 43.7639 14.5805 45.5916 16.4083C47.4194 18.2361 48.3333 20.4333 48.3333 23C48.3333 25.5667 47.4194 27.7639 45.5916 29.5917C43.7639 31.4194 41.5666 32.3333 39 32.3333ZM39 27.6667C40.2833 27.6667 41.3819 27.2097 42.2958 26.2958C43.2097 25.3819 43.6666 24.2833 43.6666 23C43.6666 21.7167 43.2097 20.618 42.2958 19.7042C41.3819 18.7903 40.2833 18.3333 39 18.3333C37.7166 18.3333 36.618 18.7903 35.7041 19.7042C34.7903 20.618 34.3333 21.7167 34.3333 23C34.3333 24.2833 34.7903 25.3819 35.7041 26.2958C36.618 27.2097 37.7166 27.6667 39 27.6667ZM39 34.6667C41.9555 34.6667 44.6875 35.0167 47.1958 35.7167C49.7041 36.4167 51.95 37.2722 53.9333 38.2833C55.1 38.9055 56.0139 39.7708 56.675 40.8792C57.3361 41.9875 57.6666 43.2028 57.6666 44.525V55.6667C57.6666 56.95 57.2097 58.0486 56.2958 58.9625C55.3819 59.8764 54.2833 60.3333 53 60.3333H33.75C31.9611 60.3333 30.4444 59.7111 29.2 58.4667C27.9555 57.2222 27.3333 55.7055 27.3333 53.9167C27.3333 52.1278 27.9555 50.6111 29.2 49.3667C30.4444 48.1222 31.9611 47.5 33.75 47.5H40.3416L43.9583 39.8C43.1805 39.6444 42.3833 39.5278 41.5666 39.45C40.75 39.3722 39.8944 39.3333 39 39.3333C36.2 39.3333 33.7111 39.6736 31.5333 40.3542C29.3555 41.0347 27.5861 41.7444 26.225 42.4833C25.8361 42.6778 25.5347 42.9597 25.3208 43.3292C25.1069 43.6986 25 44.0972 25 44.525V58C25 58.6611 24.7764 59.2153 24.3291 59.6625C23.8819 60.1097 23.3278 60.3333 22.6666 60.3333C22.0055 60.3333 21.4514 60.1097 21.0041 59.6625C20.5569 59.2153 20.3333 58.6611 20.3333 58V44.525C20.3333 43.2028 20.6639 41.9875 21.325 40.8792C21.9861 39.7708 22.9 38.9055 24.0666 38.2833C26.05 37.2722 28.2958 36.4167 30.8041 35.7167C33.3125 35.0167 36.0444 34.6667 39 34.6667ZM33.75 55.6667H36.55L38.1833 52.1667H33.75C33.2833 52.1667 32.875 52.3417 32.525 52.6917C32.175 53.0417 32 53.45 32 53.9167C32 54.3833 32.175 54.7917 32.525 55.1417C32.875 55.4917 33.2833 55.6667 33.75 55.6667ZM41.6833 55.6667H53V44.525C53 44.0972 52.893 43.6986 52.6791 43.3292C52.4653 42.9597 52.1833 42.6778 51.8333 42.4833C51.3666 42.25 50.8611 42.0069 50.3166 41.7542C49.7722 41.5014 49.1889 41.2583 48.5666 41.025L41.6833 55.6667Z" fill="#211657"/>
</g>
<defs>
<filter id="filter0_d_450_128" x="0" y="0" width="78" height="78" filterUnits="userSpaceOnUse" color-interpolation-filters="sRGB">
<feFlood flood-opacity="0" result="BackgroundImageFix"/>
<feColorMatrix in="SourceAlpha" type="matrix" values="0 0 0 0 0 0 0 0 0 0 0 0 0 0 0 0 0 0 127 0" result="hardAlpha"/>
<feOffset dy="2"/>
<feGaussianBlur stdDeviation="2"/>
<feComposite in2="hardAlpha" operator="out"/>
<feColorMatrix type="matrix" values="0 0 0 0 0 0 0 0 0 0 0 0 0 0 0 0 0 0 0.15 0"/>
<feBlend mode="normal" in2="BackgroundImageFix" result="effect1_dropShadow_450_128"/>
<feBlend mode="normal" in="SourceGraphic" in2="effect1_dropShadow_450_128" result="shape"/>
</filter>
</defs>
</svg>
