<svg width="23" height="74" viewBox="0 0 23 74" fill="none" xmlns="http://www.w3.org/2000/svg">
<g filter="url(#filter0_d_450_138)">
<circle cx="39" cy="37" r="35" fill="#F3F0F9"/>
</g>
<mask id="mask0_450_138" style="mask-type:alpha" maskUnits="userSpaceOnUse" x="11" y="9" width="56" height="56">
<rect x="11" y="9" width="56" height="56" fill="#D9D9D9"/>
</mask>
<g mask="url(#mask0_450_138)">
<path d="M20.3334 60.3333C19.05 60.3333 17.9514 59.8764 17.0375 58.9625C16.1236 58.0486 15.6667 56.95 15.6667 55.6667V35.3667C15.6667 34.4333 15.9195 33.5778 16.425 32.8C16.9306 32.0222 17.6306 31.4389 18.525 31.05L28.7334 26.7333C29.5111 26.4222 30.25 26.4805 30.95 26.9083C31.65 27.3361 32 27.9778 32 28.8333V30L40.4584 26.6167C41.2361 26.3055 41.9653 26.3833 42.6459 26.85C43.3264 27.3167 43.6667 27.9583 43.6667 28.775V32.3333H62.3334V55.6667C62.3334 56.95 61.8764 58.0486 60.9625 58.9625C60.0486 59.8764 58.95 60.3333 57.6667 60.3333H20.3334ZM20.3334 55.6667H57.6667V37H39V32.2167L27.3334 36.8833V32.3333L20.3334 35.425V55.6667ZM36.6667 51H41.3334V41.6667H36.6667V51ZM27.3334 51H32V41.6667H27.3334V51ZM46 51H50.6667V41.6667H46V51ZM62.3334 32.3333H50.6667L52.7667 15.7083C52.8445 15.125 53.0972 14.6389 53.525 14.25C53.9528 13.8611 54.4584 13.6667 55.0417 13.6667H57.9584C58.5417 13.6667 59.0472 13.8611 59.475 14.25C59.9028 14.6389 60.1556 15.125 60.2334 15.7083L62.3334 32.3333Z" fill="#211657"/>
</g>
<defs>
<filter id="filter0_d_450_138" x="0" y="0" width="78" height="78" filterUnits="userSpaceOnUse" color-interpolation-filters="sRGB">
<feFlood flood-opacity="0" result="BackgroundImageFix"/>
<feColorMatrix in="SourceAlpha" type="matrix" values="0 0 0 0 0 0 0 0 0 0 0 0 0 0 0 0 0 0 127 0" result="hardAlpha"/>
<feOffset dy="2"/>
<feGaussianBlur stdDeviation="2"/>
<feComposite in2="hardAlpha" operator="out"/>
<feColorMatrix type="matrix" values="0 0 0 0 0 0 0 0 0 0 0 0 0 0 0 0 0 0 0.15 0"/>
<feBlend mode="normal" in2="BackgroundImageFix" result="effect1_dropShadow_450_138"/>
<feBlend mode="normal" in="SourceGraphic" in2="effect1_dropShadow_450_138" result="shape"/>
</filter>
</defs>
</svg>
