<svg width="78" height="74" viewBox="0 0 78 74" fill="none" xmlns="http://www.w3.org/2000/svg">
<g filter="url(#filter0_d_450_118)">
<path d="M74 37C74 56.33 58.33 72 39 72C19.67 72 4 56.33 4 37C4 17.67 19.67 2 39 2C58.33 2 74 17.67 74 37Z" fill="#F3F0F9"/>
</g>
<mask id="mask0_450_118" style="mask-type:alpha" maskUnits="userSpaceOnUse" x="11" y="9" width="56" height="56">
<rect x="11" y="9" width="56" height="56" fill="#D9D9D9"/>
</mask>
<g mask="url(#mask0_450_118)">
<path d="M22.725 58C21.4417 58 20.3431 57.5431 19.4292 56.6292C18.5153 55.7153 18.0583 54.6167 18.0583 53.3333V34.7833C17.1639 33.9667 16.4736 32.9167 15.9875 31.6333C15.5014 30.35 15.4917 28.95 15.9583 27.4333L18.4083 19.5C18.7194 18.4889 19.2736 17.6528 20.0708 16.9917C20.8681 16.3306 21.7917 16 22.8417 16H55.275C56.325 16 57.2389 16.3208 58.0167 16.9625C58.7944 17.6042 59.3583 18.45 59.7083 19.5L62.1583 27.4333C62.625 28.95 62.6153 30.3306 62.1292 31.575C61.6431 32.8194 60.9528 33.8889 60.0583 34.7833V53.3333C60.0583 54.6167 59.6014 55.7153 58.6875 56.6292C57.7736 57.5431 56.675 58 55.3917 58H22.725ZM44.1917 32.3333C45.2417 32.3333 46.0389 31.9736 46.5833 31.2542C47.1278 30.5347 47.3417 29.7278 47.225 28.8333L45.9417 20.6667H41.3917V29.3C41.3917 30.1167 41.6639 30.8264 42.2083 31.4292C42.7528 32.0319 43.4139 32.3333 44.1917 32.3333ZM33.6917 32.3333C34.5861 32.3333 35.3153 32.0319 35.8792 31.4292C36.4431 30.8264 36.725 30.1167 36.725 29.3V20.6667H32.175L30.8917 28.8333C30.7361 29.7667 30.9403 30.5833 31.5042 31.2833C32.0681 31.9833 32.7972 32.3333 33.6917 32.3333ZM23.3083 32.3333C24.0083 32.3333 24.6208 32.0806 25.1458 31.575C25.6708 31.0694 25.9917 30.4278 26.1083 29.65L27.3917 20.6667H22.8417L20.5083 28.4833C20.275 29.2611 20.4014 30.0972 20.8875 30.9917C21.3736 31.8861 22.1806 32.3333 23.3083 32.3333ZM54.8083 32.3333C55.9361 32.3333 56.7528 31.8861 57.2583 30.9917C57.7639 30.0972 57.8806 29.2611 57.6083 28.4833L55.1583 20.6667H50.725L52.0083 29.65C52.125 30.4278 52.4458 31.0694 52.9708 31.575C53.4958 32.0806 54.1083 32.3333 54.8083 32.3333ZM22.725 53.3333H55.3917V36.8833C55.1972 36.9611 55.0708 37 55.0125 37H54.8083C53.7583 37 52.8347 36.825 52.0375 36.475C51.2403 36.125 50.4528 35.5611 49.675 34.7833C48.975 35.4833 48.1778 36.0278 47.2833 36.4167C46.3889 36.8056 45.4361 37 44.425 37C43.375 37 42.3931 36.8056 41.4792 36.4167C40.5653 36.0278 39.7583 35.4833 39.0583 34.7833C38.3972 35.4833 37.6292 36.0278 36.7542 36.4167C35.8792 36.8056 34.9361 37 33.925 37C32.7972 37 31.7764 36.8056 30.8625 36.4167C29.9486 36.0278 29.1417 35.4833 28.4417 34.7833C27.625 35.6 26.8181 36.1736 26.0208 36.5042C25.2236 36.8347 24.3194 37 23.3083 37H23.0458C22.9486 37 22.8417 36.9611 22.725 36.8833V53.3333Z" fill="#211657"/>
</g>
<defs>
<filter id="filter0_d_450_118" x="0" y="0" width="78" height="78" filterUnits="userSpaceOnUse" color-interpolation-filters="sRGB">
<feFlood flood-opacity="0" result="BackgroundImageFix"/>
<feColorMatrix in="SourceAlpha" type="matrix" values="0 0 0 0 0 0 0 0 0 0 0 0 0 0 0 0 0 0 127 0" result="hardAlpha"/>
<feOffset dy="2"/>
<feGaussianBlur stdDeviation="2"/>
<feComposite in2="hardAlpha" operator="out"/>
<feColorMatrix type="matrix" values="0 0 0 0 0 0 0 0 0 0 0 0 0 0 0 0 0 0 0.15 0"/>
<feBlend mode="normal" in2="BackgroundImageFix" result="effect1_dropShadow_450_118"/>
<feBlend mode="normal" in="SourceGraphic" in2="effect1_dropShadow_450_118" result="shape"/>
</filter>
</defs>
</svg>
