<svg width="78" height="74" viewBox="0 0 78 74" fill="none" xmlns="http://www.w3.org/2000/svg">
<g filter="url(#filter0_d_450_123)">
<circle cx="39" cy="37" r="35" fill="#F3F0F9"/>
</g>
<mask id="mask0_450_123" style="mask-type:alpha" maskUnits="userSpaceOnUse" x="11" y="9" width="56" height="56">
<rect x="11" y="9" width="56" height="56" fill="#D9D9D9"/>
</mask>
<g mask="url(#mask0_450_123)">
<path d="M39 50.1833C39.3111 50.1833 39.5931 50.1347 39.8458 50.0375C40.0986 49.9403 40.3417 49.7944 40.575 49.6C41.8194 48.4722 43.0056 47.3639 44.1333 46.275C45.2611 45.1861 46.2431 44.1166 47.0792 43.0666C47.9153 42.0166 48.5861 40.9958 49.0917 40.0041C49.5972 39.0125 49.85 38.05 49.85 37.1166C49.85 35.4055 49.2667 33.9861 48.1 32.8583C46.9333 31.7305 45.5333 31.1666 43.9 31.1666C42.8889 31.1666 41.9653 31.3708 41.1292 31.7791C40.2931 32.1875 39.5833 32.7222 39 33.3833C38.4167 32.7222 37.6875 32.1875 36.8125 31.7791C35.9375 31.3708 35.0333 31.1666 34.1 31.1666C32.4667 31.1666 31.0667 31.7305 29.9 32.8583C28.7333 33.9861 28.15 35.4055 28.15 37.1166C28.15 38.05 28.4028 39.0125 28.9083 40.0041C29.4139 40.9958 30.0847 42.0166 30.9208 43.0666C31.7569 44.1166 32.7389 45.1861 33.8667 46.275C34.9944 47.3639 36.1806 48.4722 37.425 49.6C37.6583 49.7944 37.9014 49.9403 38.1542 50.0375C38.4069 50.1347 38.6889 50.1833 39 50.1833ZM25 58C23.7167 58 22.6181 57.543 21.7042 56.6291C20.7903 55.7153 20.3333 54.6166 20.3333 53.3333V36.125L18 37.9333C17.4556 38.3222 16.8722 38.4778 16.25 38.4C15.6278 38.3222 15.1222 38.0111 14.7333 37.4666C14.3444 36.9222 14.1986 36.3389 14.2958 35.7166C14.3931 35.0944 14.6944 34.5889 15.2 34.2L36.1417 18.1583C36.5694 17.8472 37.0264 17.6139 37.5125 17.4583C37.9986 17.3028 38.4944 17.225 39 17.225C39.5056 17.225 40.0014 17.3028 40.4875 17.4583C40.9736 17.6139 41.4306 17.8472 41.8583 18.1583L62.8583 34.2C63.3639 34.5889 63.6556 35.0944 63.7333 35.7166C63.8111 36.3389 63.6556 36.9222 63.2667 37.4666C62.8778 37.9722 62.3722 38.2639 61.75 38.3416C61.1278 38.4194 60.5639 38.2639 60.0583 37.875L57.6667 36.125V53.3333C57.6667 54.6166 57.2097 55.7153 56.2958 56.6291C55.3819 57.543 54.2833 58 53 58H25ZM25 53.3333H53V32.5666L39 21.8916L25 32.5666V53.3333Z" fill="#211657"/>
</g>
<defs>
<filter id="filter0_d_450_123" x="0" y="0" width="78" height="78" filterUnits="userSpaceOnUse" color-interpolation-filters="sRGB">
<feFlood flood-opacity="0" result="BackgroundImageFix"/>
<feColorMatrix in="SourceAlpha" type="matrix" values="0 0 0 0 0 0 0 0 0 0 0 0 0 0 0 0 0 0 127 0" result="hardAlpha"/>
<feOffset dy="2"/>
<feGaussianBlur stdDeviation="2"/>
<feComposite in2="hardAlpha" operator="out"/>
<feColorMatrix type="matrix" values="0 0 0 0 0 0 0 0 0 0 0 0 0 0 0 0 0 0 0.15 0"/>
<feBlend mode="normal" in2="BackgroundImageFix" result="effect1_dropShadow_450_123"/>
<feBlend mode="normal" in="SourceGraphic" in2="effect1_dropShadow_450_123" result="shape"/>
</filter>
</defs>
</svg>
