<svg width="78" height="74" viewBox="0 0 78 74" fill="none" xmlns="http://www.w3.org/2000/svg">
<g filter="url(#filter0_d_450_113)">
<circle cx="39" cy="37" r="35" fill="#F3F0F9"/>
</g>
<mask id="mask0_450_113" style="mask-type:alpha" maskUnits="userSpaceOnUse" x="11" y="9" width="56" height="56">
<rect x="11" y="9" width="56" height="56" fill="#D9D9D9"/>
</mask>
<g mask="url(#mask0_450_113)">
<path d="M42.5 60.3333C38.3 60.3333 34.7222 58.8555 31.7667 55.9C28.8111 52.9444 27.3334 49.3667 27.3334 45.1667V43.825C23.9889 43.2805 21.2084 41.7153 18.9917 39.1292C16.775 36.543 15.6667 33.5 15.6667 30V16H22.6667V13.6667H27.3334V23H22.6667V20.6667H20.3334V30C20.3334 32.5667 21.2472 34.7639 23.075 36.5917C24.9028 38.4194 27.1 39.3333 29.6667 39.3333C32.2334 39.3333 34.4306 38.4194 36.2584 36.5917C38.0861 34.7639 39 32.5667 39 30V20.6667H36.6667V23H32V13.6667H36.6667V16H43.6667V30C43.6667 33.5 42.5584 36.543 40.3417 39.1292C38.125 41.7153 35.3445 43.2805 32 43.825V45.1667C32 48.0833 33.0209 50.5625 35.0625 52.6042C37.1042 54.6458 39.5834 55.6667 42.5 55.6667C45.4167 55.6667 47.8959 54.6458 49.9375 52.6042C51.9792 50.5625 53 48.0833 53 45.1667V41.2583C51.6389 40.7917 50.5209 39.9555 49.6459 38.75C48.7709 37.5444 48.3334 36.1833 48.3334 34.6667C48.3334 32.7222 49.0139 31.0694 50.375 29.7083C51.7361 28.3472 53.3889 27.6667 55.3334 27.6667C57.2778 27.6667 58.9306 28.3472 60.2917 29.7083C61.6528 31.0694 62.3334 32.7222 62.3334 34.6667C62.3334 36.1833 61.8959 37.5444 61.0209 38.75C60.1459 39.9555 59.0278 40.7917 57.6667 41.2583V45.1667C57.6667 49.3667 56.1889 52.9444 53.2334 55.9C50.2778 58.8555 46.7 60.3333 42.5 60.3333ZM55.3334 37C55.9945 37 56.5486 36.7764 56.9959 36.3292C57.4431 35.8819 57.6667 35.3278 57.6667 34.6667C57.6667 34.0055 57.4431 33.4514 56.9959 33.0042C56.5486 32.5569 55.9945 32.3333 55.3334 32.3333C54.6722 32.3333 54.1181 32.5569 53.6709 33.0042C53.2236 33.4514 53 34.0055 53 34.6667C53 35.3278 53.2236 35.8819 53.6709 36.3292C54.1181 36.7764 54.6722 37 55.3334 37Z" fill="#211657"/>
</g>
<defs>
<filter id="filter0_d_450_113" x="0" y="0" width="78" height="78" filterUnits="userSpaceOnUse" color-interpolation-filters="sRGB">
<feFlood flood-opacity="0" result="BackgroundImageFix"/>
<feColorMatrix in="SourceAlpha" type="matrix" values="0 0 0 0 0 0 0 0 0 0 0 0 0 0 0 0 0 0 127 0" result="hardAlpha"/>
<feOffset dy="2"/>
<feGaussianBlur stdDeviation="2"/>
<feComposite in2="hardAlpha" operator="out"/>
<feColorMatrix type="matrix" values="0 0 0 0 0 0 0 0 0 0 0 0 0 0 0 0 0 0 0.15 0"/>
<feBlend mode="normal" in2="BackgroundImageFix" result="effect1_dropShadow_450_113"/>
<feBlend mode="normal" in="SourceGraphic" in2="effect1_dropShadow_450_113" result="shape"/>
</filter>
</defs>
</svg>
